<?xml version="1.0" standalone="no"?>
<!DOCTYPE svg PUBLIC "-//W3C//DTD SVG 20010904//EN"
 "http://www.w3.org/TR/2001/REC-SVG-20010904/DTD/svg10.dtd">
<svg version="1.0" xmlns="http://www.w3.org/2000/svg"
 width="192.000000pt" height="192.000000pt" viewBox="0 0 192.000000 192.000000"
 preserveAspectRatio="xMidYMid meet">
<metadata>
Created by potrace 1.11, written by Peter Selinger 2001-2013
</metadata>
<g transform="translate(0.000000,192.000000) scale(0.100000,-0.100000)"
fill="#000000" stroke="none">
<path d="M1053 1788 l0 -133 -89 -1 c-208 -4 -377 -74 -514 -215 -60 -61 -121
-157 -147 -230 l-17 -47 -125 0 c-158 0 -151 1 -151 -17 0 -13 24 -15 154 -15
l153 0 22 58 c124 343 528 517 865 374 252 -106 411 -357 400 -630 -6 -175
-83 -340 -213 -460 -84 -78 -246 -153 -346 -161 -6 -1 -10 -59 -10 -153 1
-135 3 -153 18 -156 15 -3 17 11 19 134 l3 137 55 13 c30 8 93 33 140 56 67
34 103 60 170 128 93 93 142 172 180 295 26 84 33 243 15 322 -7 29 -10 55 -6
57 3 1 68 2 144 1 126 -1 137 1 137 17 0 17 -12 18 -148 18 l-147 0 -34 73
c-84 179 -244 317 -434 372 l-56 16 -3 137 c-3 115 -5 137 -19 140 -14 2 -16
-14 -16 -130z"/>
<path d="M910 955 c0 -242 4 -375 10 -376 6 -1 22 -2 38 -3 l27 -1 0 378 0
377 -37 0 -38 0 0 -375z"/>
</g>
</svg>
